<?xml version="1.0" encoding="utf-8"?>
<svg version="1.1" xmlns:xlink="http://www.w3.org/1999/xlink" width="29px" height="30px" xmlns="http://www.w3.org/2000/svg">
  <g transform="matrix(1 0 0 1 -141 -246 )">
    <path d="M 22.599609375 17.12890625  C 22.8387586805555 16.8815104166667  22.9583333333333 16.5885416666667  22.9583333333333 16.25  L 22.9583333333333 13.75  C 22.9583333333333 13.4114583333333  22.8387586805555 13.1184895833333  22.599609375 12.87109375  C 22.3604600694445 12.6236979166667  22.0772569444445 12.5  21.75 12.5  L 16.9166666666667 12.5  L 16.9166666666667 7.5  C 16.9166666666667 7.16145833333331  16.7970920138889 6.86848958333331  16.5579427083333 6.62109375  C 16.3187934027778 6.37369791666669  16.0355902777778 6.25  15.7083333333333 6.25  L 13.2916666666667 6.25  C 12.9644097222222 6.25  12.6812065972222 6.37369791666669  12.4420572916667 6.62109375  C 12.2029079861111 6.86848958333331  12.0833333333333 7.16145833333331  12.0833333333333 7.5  L 12.0833333333333 12.5  L 7.25 12.5  C 6.92274305555554 12.5  6.63953993055554 12.6236979166667  6.400390625 12.87109375  C 6.16124131944446 13.1184895833333  6.04166666666666 13.4114583333333  6.04166666666666 13.75  L 6.04166666666666 16.25  C 6.04166666666666 16.5885416666667  6.16124131944446 16.8815104166667  6.400390625 17.12890625  C 6.63953993055554 17.3763020833333  6.92274305555554 17.5  7.25 17.5  L 12.0833333333333 17.5  L 12.0833333333333 22.5  C 12.0833333333333 22.8385416666667  12.2029079861111 23.1315104166667  12.4420572916667 23.37890625  C 12.6812065972222 23.6263020833333  12.9644097222222 23.75  13.2916666666667 23.75  L 15.7083333333333 23.75  C 16.0355902777778 23.75  16.3187934027778 23.6263020833333  16.5579427083333 23.37890625  C 16.7970920138889 23.1315104166667  16.9166666666667 22.8385416666667  16.9166666666667 22.5  L 16.9166666666667 17.5  L 21.75 17.5  C 22.0772569444445 17.5  22.3604600694445 17.3763020833333  22.599609375 17.12890625  Z M 27.0553385416667 7.470703125  C 28.3517795138889 9.76888020833331  29 12.2786458333333  29 15  C 29 17.7213541666667  28.3517795138889 20.2311197916667  27.0553385416667 22.529296875  C 25.7588975694445 24.8274739583333  23.9998914930555 26.6471354166667  21.7783203125 27.98828125  C 19.5567491319445 29.3294270833333  17.1306423611111 30  14.5 30  C 11.8693576388889 30  9.44325086805554 29.3294270833333  7.2216796875 27.98828125  C 5.00010850694446 26.6471354166667  3.24110243055554 24.8274739583333  1.94466145833334 22.529296875  C 0.648220486111114 20.2311197916667  0 17.7213541666667  0 15  C 0 12.2786458333333  0.648220486111114 9.76888020833331  1.94466145833334 7.470703125  C 3.24110243055554 5.17252604166669  5.00010850694446 3.35286458333331  7.2216796875 2.01171875  C 9.44325086805554 0.670572916666686  11.8693576388889 0  14.5 0  C 17.1306423611111 0  19.5567491319445 0.670572916666686  21.7783203125 2.01171875  C 23.9998914930555 3.35286458333331  25.7588975694445 5.17252604166669  27.0553385416667 7.470703125  Z " fill-rule="nonzero" fill="#000000" stroke="none" transform="matrix(1 0 0 1 141 246 )" />
  </g>
</svg>