<?xml version="1.0" encoding="utf-8"?>
<svg version="1.1" xmlns:xlink="http://www.w3.org/1999/xlink" width="31px" height="33px" xmlns="http://www.w3.org/2000/svg">
  <g transform="matrix(1 0 0 1 -40 -247 )">
    <path d="M 24.158203125 18.841796875  C 24.4138454861111 18.5696614583333  24.5416666666667 18.2473958333333  24.5416666666667 17.875  L 24.5416666666667 15.125  C 24.5416666666667 14.7526041666667  24.4138454861111 14.4303385416667  24.158203125 14.158203125  C 23.9025607638889 13.8860677083333  23.5998263888889 13.75  23.25 14  L 7.75 14  C 7.40017361111111 13.75  7.09743923611111 13.8860677083333  6.841796875 14.158203125  C 6.58615451388889 14.4303385416667  6.45833333333334 14.7526041666667  6.45833333333334 15.125  L 6.45833333333334 17.875  C 6.45833333333334 18.2473958333333  6.58615451388889 18.5696614583333  6.841796875 18.841796875  C 7.09743923611111 19.1139322916667  7.40017361111111 19.25  7.75 19  L 23.25 19  C 23.5998263888889 19.25  23.9025607638889 19.1139322916667  24.158203125 18.841796875  Z M 28.9212239583333 8.2177734375  C 30.3070746527778 10.7457682291667  31 13.5065104166667  31 16.5  C 31 19.4934895833333  30.3070746527778 22.2542317708333  28.9212239583333 24.7822265625  C 27.5353732638889 27.3102213541667  25.6550564236111 29.3118489583333  23.2802734375 30.787109375  C 20.9054904513889 32.2623697916667  18.3120659722222 33  15.5 33  C 12.6879340277778 33  10.0945095486111 32.2623697916667  7.7197265625 30.787109375  C 5.34494357638889 29.3118489583333  3.46462673611111 27.3102213541667  2.07877604166667 24.7822265625  C 0.692925347222221 22.2542317708333  0 19.4934895833333  0 16.5  C 0 13.5065104166667  0.692925347222221 10.7457682291667  2.07877604166667 8.2177734375  C 3.46462673611111 5.68977864583334  5.34494357638889 3.68815104166666  7.7197265625 2.212890625  C 10.0945095486111 0.737630208333343  12.6879340277778 0  15.5 0  C 18.3120659722222 0  20.9054904513889 0.737630208333343  23.2802734375 2.212890625  C 25.6550564236111 3.68815104166666  27.5353732638889 5.68977864583334  28.9212239583333 8.2177734375  Z " fill-rule="nonzero" fill="#000000" stroke="none" transform="matrix(1 0 0 1 40 247 )" />
  </g>
</svg>